<?xml version="1.0" encoding="UTF-8"?>
<svg width="710px" height="778px" viewBox="0 0 710 778" version="1.1" xmlns="http://www.w3.org/2000/svg" xmlns:xlink="http://www.w3.org/1999/xlink">
    <title>iaa-logo</title>
    <defs></defs>
    <g id="iaa-logo" stroke="none" stroke-width="1" fill="none" fill-rule="evenodd">
        <g id="gray-line" transform="translate(356.000000, 389.500000) scale(-1, 1) translate(-356.000000, -389.500000) translate(129.000000, 359.000000)" stroke="#7C7C7C" stroke-linecap="square" stroke-width="25">
            <path d="M0.440776699,60.8679654 L453.559223,0.132034632" id="Line"></path>
        </g>
        <g id="gray-line" transform="translate(98.000000, 69.000000)" stroke="#7C7C7C" stroke-linecap="square" stroke-width="25">
            <path d="M0.500970874,639.612554 L515.499029,1.38744589" id="Line"></path>
        </g>
        <g id="connected-purple-dots" transform="translate(370.500000, 213.500000) rotate(-7.000000) translate(-370.500000, -213.500000) translate(51.000000, 38.000000)">
            <g id="gray-line" transform="translate(62.000000, 62.000000)" stroke="#7C7C7C" stroke-linecap="square" stroke-width="25">
                <path d="M0.501941748,227.506494 L516.498058,0.493506494" id="Line"></path>
            </g>
            <g id="purple-point" transform="translate(0.000000, 228.000000)" fill="#5700A1" fill-rule="evenodd">
                <circle id="Oval" cx="61.5" cy="61.5" r="61.5"></circle>
            </g>
            <g id="purple-point" transform="translate(516.000000, 0.000000)" fill="#5700A1" fill-rule="evenodd">
                <circle id="Oval" cx="61.5" cy="61.5" r="61.5"></circle>
            </g>
        </g>
        <g id="connected-purple-dots" transform="translate(339.500000, 564.500000) rotate(-7.000000) translate(-339.500000, -564.500000) translate(20.000000, 389.000000)">
            <g id="gray-line" transform="translate(62.000000, 62.000000)" stroke="#7C7C7C" stroke-linecap="square" stroke-width="25">
                <path d="M0.501941748,227.506494 L516.498058,0.493506494" id="Line"></path>
            </g>
            <g id="purple-point" transform="translate(0.000000, 228.000000)" fill="#5700A1" fill-rule="evenodd">
                <circle id="Oval" cx="61.5" cy="61.5" r="61.5"></circle>
            </g>
            <g id="purple-point" transform="translate(516.000000, 0.000000)" fill="#5700A1" fill-rule="evenodd">
                <circle id="Oval" cx="61.5" cy="61.5" r="61.5"></circle>
            </g>
        </g>
    </g>
</svg>
